#!OML:ASF H:\GeneralSubjects\Female5\Project 1\Capture day 1\Session 1\Female5.ASF
:FULLY-SPECIFIED
:DEGREES
259
root -24.409 15.3771 1.44402 -41.6713 75.733 326.009
lowerback -0.394255 3.07847 8.94884
upperback -11.5827 5.27908 0.778342
thorax -11.6638 1.91895 -4.63426
lowerneck -17.9918 6.42259 16.4397
upperneck 46.1385 6.67075 -0.114127
head 24.0495 6.53602 -1.00954
rclavicle 1.43125e-014 4.37326e-014
rhumerus 15.816 -49.1061 -50.6588
rradius 140.121
rwrist -56.273
rhand -23.4153 -6.22562
rfingers 7.12502
rthumb 3.04205 -36.1837
lclavicle 1.43125e-014 4.37326e-014
lhumerus -47.7595 11.9612 55.8403
lradius 32.7435
lwrist -3.01024
lhand -18.5554 40.4399
lfingers 7.12502
lthumb 7.73429 70.2785
rfemur 16.0858 8.561 42.8383
rtibia 10.8165
rfoot -19.3467 -1.94834
rtoes -13.523
lfemur -9.15394 -12.7248 -7.58833
ltibia 38.7085
lfoot -20.4 19.6747
ltoes -69.0501
260
root -24.484 15.3774 1.47234 -40.8437 75.662 326.874
lowerback -0.322309 3.08363 8.72768
upperback -11.5072 5.26099 0.737439
thorax -11.6268 1.92913 -4.55762
lowerneck -18.2983 6.83525 16.6395
upperneck 45.4975 6.9434 0.0917531
head 23.6175 6.60845 -0.882365
rclavicle -1.15295e-014 -1.90833e-014
rhumerus 15.199 -50.2849 -50.1638
rradius 140.143
rwrist -56.8713
rhand -23.8619 -6.4565
rfingers 7.12502
rthumb 2.6107 -36.4203
lclavicle -1.15295e-014 -1.90833e-014
lhumerus -47.6478 11.4548 56.4602
lradius 33.2923
lwrist -2.3357
lhand -19.1738 39.7647
lfingers 7.12502
lthumb 7.13737 69.6243
rfemur 15.7878 8.56212 42.8189
rtibia 10.9296
rfoot -19.0306 -1.79239
rtoes -13.2472
lfemur -9.69825 -12.7859 -7.61153
ltibia 39.0754
lfoot -19.4738 20.8988
ltoes -68.5047
261
root -24.5633 15.3806 1.50071 -40.6279 75.5875 327.237
lowerback -0.073501 3.08851 8.57236
upperback -11.4117 5.26477 0.719306
thorax -11.6704 1.9391 -4.50655
lowerneck -18.5962 7.18967 16.976
upperneck 44.8082 7.1691 0.0599625
head 23.1861 6.6577 -0.928441
rclavicle 0 -2.70347e-014
rhumerus 14.4096 -51.5454 -49.4479
rradius 140.15
rwrist -57.6497
rhand -24.1095 -6.9442
rfingers 7.12502
rthumb 2.37165 -36.9108
lclavicle 0 -2.70347e-014
lhumerus -47.5727 11.0301 56.9597
lradius 33.7985
lwrist -1.90135
lhand -19.5139 39.7506
lfingers 7.12502
lthumb 6.80912 69.6211
rfemur 15.5059 8.58345 42.9271
rtibia 11.2113
rfoot -18.8044 -1.65188
rtoes -12.5264
lfemur -10.1537 -12.8682 -7.5253
ltibia 39.4167
lfoot -18.7933 21.8464
ltoes -68.0616
262
root -24.6436 15.384 1.52666 -40.8313 75.5454 327.18
lowerback 0.227542 3.08223 8.54805
upperback -11.3161 5.26649 0.688523
thorax -11.7388 1.93281 -4.54498
lowerneck -18.9576 7.4748 17.3363
upperneck 44.1332 7.29347 -0.0638082
head 22.8054 6.66317 -1.04998
rclavicle 3.1408e-014 -4.6118e-014
rhumerus 13.3269 -52.6084 -48.458
rradius 140.121
rwrist -58.0421
rhand -24.351 -7.45258
rfingers 7.12502
rthumb 2.13837 -37.4216
lclavicle 3.1408e-014 -4.6118e-014
lhumerus -47.4502 10.8135 57.3214
lradius 34.0873
lwrist -1.65635
lhand -19.7301 39.5252
lfingers 7.12502
lthumb 6.60037 69.4023
rfemur 15.2333 8.55324 43.0712
rtibia 11.4789
rfoot -18.6393 -1.52007
rtoes -11.5077
lfemur -10.4479 -13.0629 -7.41589
ltibia 39.4843
lfoot -18.3453 22.3226
ltoes -67.921
263
root -24.7302 15.3869 1.55344 -40.9258 75.6315 327.145
lowerback 0.513372 3.05234 8.36214
upperback -11.2394 5.22925 0.680759
thorax -11.8367 1.92411 -4.46664
lowerneck -18.9994 7.74066 17.5448
upperneck 43.5935 7.56494 -0.11315
head 21.9924 6.67074 -0.935122
rclavicle 0 -1.90833e-014
rhumerus 12.033 -53.1762 -47.2015
rradius 139.952
rwrist -57.3896
rhand -25.1411 -7.28379
rfingers 7.12502
rthumb 1.37534 -37.2591
lclavicle 0 -1.90833e-014
lhumerus -47.3855 10.5682 57.7379
lradius 34.2851
lwrist -1.61433
lhand -19.6151 39.0594
lfingers 7.12502
lthumb 6.71137 68.933
rfemur 14.9265 8.54898 43.165
rtibia 11.5947
rfoot -18.7422 -1.62966
rtoes -10.7745
lfemur -10.6815 -13.296 -7.40443
ltibia 39.2885
lfoot -18.1888 22.862
ltoes -67.831
264
root -24.8278 15.391 1.58238 -41.4143 75.7668 326.68
lowerback 0.868537 3.00197 8.14663
upperback -11.1707 5.1743 0.712224
thorax -11.9951 1.90925 -4.33347
lowerneck -19.3354 8.08679 17.5015
upperneck 42.8864 7.8544 0.0357365
head 21.6001 6.70853 -0.802714
rclavicle -1.19271e-015 -4.37326e-014
rhumerus 10.8059 -53.6951 -45.9012
rradius 139.76
rwrist -56.7472
rhand -26.116 -7.04964
rfingers 7.12502
rthumb 0.433718 -37.0289
lclavicle -1.19271e-015 -4.37326e-014
lhumerus -47.3249 10.3037 58.1319
lradius 34.4189
lwrist -1.67981
lhand -19.1255 38.7004
lfingers 7.12502
lthumb 7.18398 68.5584
rfemur 14.495 8.41587 43.2739
rtibia 11.7335
rfoot -18.9089 -1.82978
rtoes -10.6087
lfemur -11.0294 -13.5599 -7.27165
ltibia 39.0622
lfoot -17.9125 24.0856
ltoes -67.3562
265
root -24.9266 15.391 1.60939 -42.1578 76.0269 325.913
lowerback 1.10934 2.93603 7.99502
upperback -11.0638 5.07915 0.684657
thorax -12.0338 1.87188 -4.28466
lowerneck -19.696 8.39553 17.6296
upperneck 42.0917 8.13991 -0.148105
head 21.2035 6.7209 -0.876216
rclavicle 1.19271e-015 2.3059e-014
rhumerus 9.66246 -54.4602 -44.6421
rradius 139.657
rwrist -56.72
rhand -26.7489 -7.11856
rfingers 7.12502
rthumb -0.177592 -37.0982
lclavicle 1.19271e-015 2.3059e-014
lhumerus -47.1753 10.2654 58.3532
lradius 34.4419
lwrist -1.78558
lhand -18.6112 38.52
lfingers 7.12502
lthumb 7.68043 68.3605
rfemur 14.015 8.10449 43.2807
rtibia 11.8178
rfoot -18.8162 -1.99484
rtoes -10.8507
lfemur -11.4707 -13.939 -7.18176
ltibia 38.6845
lfoot -14.3893 27.328
ltoes -68.4215
266
root -25.0251 15.3882 1.63339 -42.8433 76.4346 325.222
lowerback 1.2851 2.87153 7.76067
upperback -10.8908 4.96103 0.635906
thorax -11.9589 1.83607 -4.20259
lowerneck -20.1665 8.67942 17.5235
upperneck 41.3109 8.36899 -0.144719
head 20.8191 6.70112 -0.822965
rclavicle -2.22639e-014 7.95139e-016
rhumerus 8.43261 -55.3308 -43.2615
rradius 139.595
rwrist -56.9069
rhand -27.0018 -7.28404
rfingers 7.12502
rthumb -0.421869 -37.2634
lclavicle -2.22639e-014 7.95139e-016
lhumerus -46.942 10.5104 58.5107
lradius 34.3169
lwrist -2.00436
lhand -18.5659 38.4123
lfingers 7.12502
lthumb 7.72419 68.2512
rfemur 13.5775 7.83369 43.1913
rtibia 11.8835
rfoot -18.6756 -2.24597
rtoes -10.2686
lfemur -11.8718 -14.4662 -7.28815
ltibia 38.2651
lfoot -12.5744 28.987
ltoes -68.8721
267
root -25.1323 15.3852 1.65883 -44.0237 76.9953 324.096
lowerback 1.64193 2.75815 7.4017
upperback -10.7034 4.78682 0.634835
thorax -11.9964 1.78146 -4.00658
lowerneck -20.5686 8.97987 17.3058
upperneck 40.4474 8.72966 -0.233027
head 20.3832 6.70055 -0.77206
rclavicle -2.0276e-014 -3.57812e-014
rhumerus 7.03807 -56.0908 -41.6886
rradius 139.592
rwrist -57.1203
rhand -27.1983 -7.59238
rfingers 7.12502
rthumb -0.611613 -37.5712
lclavicle -2.0276e-014 -3.57812e-014
lhumerus -46.6713 11.0022 58.6077
lradius 33.996
lwrist -2.339
lhand -18.719 38.1016
lfingers 7.12502
lthumb 7.57636 67.9459
rfemur 13.1416 7.61607 43.1098
rtibia 12.0336
rfoot -18.6956 -2.57935
rtoes -8.83372
lfemur -12.3714 -15.0654 -7.41566
ltibia 37.9921
lfoot -14.0574 28.8538
ltoes -68.2424
268
root -25.2522 15.3786 1.68891 -46.2051 77.6433 321.955
lowerback 2.3052 2.61386 7.17578
upperback -10.6387 4.61521 0.561833
thorax -12.3554 1.69364 -3.98699
lowerneck -20.8158 9.21873 17.371
upperneck 39.4962 9.10966 -0.777553
head 19.9261 6.69076 -0.993547
rclavicle -2.54444e-014 -5.00937e-014
rhumerus 5.01543 -56.8773 -39.6389
rradius 139.747
rwrist -57.5734
rhand -27.3755 -8.07578
rfingers 7.12502
rthumb -0.782761 -38.0541
lclavicle -2.54444e-014 -5.00937e-014
lhumerus -46.467 11.2977 58.5758
lradius 33.6447
lwrist -2.61769
lhand -18.2257 37.3295
lfingers 7.12502
lthumb 8.05248 67.1561
rfemur 12.5735 7.37035 43.1391
rtibia 12.3025
rfoot -18.8663 -3.10726
rtoes -8.67111
lfemur -13.109 -15.585 -7.355
ltibia 37.8385
lfoot -14.3366 29.1286
ltoes -67.8043
